<svg xmlns="http://www.w3.org/2000/svg" viewBox="0 0 699.76 427.51"><defs><style>.cls-1{fill:#e4f3f4;}.cls-2{fill:#03979d;}.cls-3{fill:#e3f2f4;}.cls-4{fill:#07999f;}.cls-5{fill:#e1f2f3;}.cls-6{fill:#2da9ae;}.cls-7{fill:#e7f4f5;}.cls-8{fill:#1ea2a8;}.cls-9{fill:#f7fbfb;}.cls-10{fill:#2ba7ad;}.cls-11{fill:#e3f2f3;}.cls-12{fill:#7c7e7e;}.cls-13{fill:#e0eff0;}.cls-14{fill:#7f8181;}.cls-15{fill:#7a7a7b;}.cls-16{fill:#0d9ba1;}.cls-17{fill:#7b7c7d;}.cls-18{fill:#d4e1e2;}.cls-19{fill:#808282;}.cls-20{fill:#7d7e7e;}.cls-21{fill:#797979;}.cls-22{fill:#7a7b7b;}.cls-23{fill:#7b7c7c;}.cls-24{fill:#797a7a;}.cls-25{fill:#777878;}.cls-26{fill:#fafcfc;}.cls-27{fill:#767676;}.cls-28{fill:#818383;}.cls-29{fill:#87898a;}.cls-30{fill:#3aaeb2;}.cls-31{fill:#848787;}.cls-32{fill:#868889;}.cls-33{fill:#2fa9ae;}.cls-34{fill:#868989;}.cls-35{fill:#898d8d;}.cls-36{fill:#1fa3a8;}.cls-37{fill:#828484;}.cls-38{fill:#fbfdfd;}.cls-39{fill:#898c8c;}.cls-40{fill:#18a0a6;}.cls-41{fill:#179fa5;}.cls-42{fill:#26a5ab;}.cls-43{fill:#f9fcfc;}.cls-44{fill:#169fa5;}.cls-45{fill:#9dd6d8;}.cls-46{fill:#858787;}.cls-47{fill:#8b8e8e;}.cls-48{fill:#7d7e7f;}.cls-49{fill:#858888;}.cls-50{fill:#848686;}.cls-51{fill:#7e8080;}.cls-52{fill:#838686;}.cls-53{fill:#91d1d4;}.cls-54{fill:#7e7f7f;}.cls-55{fill:#a4d9dc;}.cls-56{fill:#40b0b4;}.cls-57{fill:#05989e;}.cls-58{fill:#8a8c8d;}.cls-59{fill:#737474;}.cls-60{fill:#65bfc3;}.cls-61{fill:#7b7d7d;}.cls-62{fill:#8a8d8d;}.cls-63{fill:#e2f2f3;}.cls-64{fill:#ddf0f1;}.cls-65{fill:#acdcde;}.cls-66{fill:#dbeff1;}.cls-67{fill:#1ba1a7;}.cls-68{fill:#dfedee;}.cls-69{fill:#d3e0e1;}</style></defs><g id="Layer_2" data-name="Layer 2"><g id="Layer_1-2" data-name="Layer 1"><path class="cls-1" d="M577.45,368.47c1.07,2.16,2.7,3.35,5.1,2.31s3.57.32,4,2.3c.63,2.7-1.61,2.3-3.11,2.41-7.11.52-10.54,3.25-8.32,11.18,1.38,4.95-3.4,6.23-6.87,6.9-9.11,1.76-18.29,3.73-27.52,4.24-24.2,1.33-47.84,5.61-71.45,10.9-14.45,3.24-29.42,4.11-44.15,6.13-11.17,1.54-22.57,1.1-33.6,4a17.61,17.61,0,0,1-7.68.16c-8.19-1.65-15.75,1.86-23.64,2.45-2.33.18-5.05,1.93-6.91-1-.68-1.06-1.46-1.31-2.16-.5-7.14,8.27-17.28,3.93-25.87,5.73-9.87,2.07-20.32,1.37-30.52,1.78-4.53.18-8.65-.39-8.48-6.5,0-.66-.25-1.75-.67-1.92-6.68-2.67-9.69-11.13-18-11.25a171,171,0,0,0-30.56,2.61c-9.43,1.56-16.77-3-21.53-11.68C212.42,393,207,388.42,205,382c-2.73-9.05-11.93-5.31-17.45-9.2,3.68-1.39,3.72-1.57,7.63-.69,2.38.54,4.43.55,5.12-2,1-3.73-2.57-1.2-3.62-2.36-3-3.28-6.37-1.38-9.77-.75-11.86,2.2-23,6.43-34,11.34-.49.68-1,.65-1.47,0-5.18,0-10.48,4-15.54-.45-.84,3.65-4.22,2.71-6.54,3.73a3,3,0,0,0-1.17,2.32c0,1.17,1.16,1.37,2.07,1.35a27.61,27.61,0,0,0,4.15-.47,2.85,2.85,0,0,1,3.32,1.94c.73,1.83-.89,2.32-2.21,2.78s-2.72,1.35-4,1.22c-11.76-1.2-22,5.52-33.44,6.26-4.7.3-8.53,1.55-13.48-1.23-4-2.26-9.21-4.93-14.89-3.61-2.21.51-4-1.24-5.57-3.39-4.65-6.49-9.74-12.67-14.62-19-.52-.68-1.35-1.85-1.11-2.29,4.93-9.22-2.14-14.91-5.93-21.76a80.5,80.5,0,0,1-6.62-14.31c-2.28-7-4.18-14.58-8.94-20.61a13.06,13.06,0,0,1-2.64-5.62c-1.58-8.14-7.25-15.12-6.72-23.89.05-.81-1.21-2-2.13-2.51-2.45-1.34-2.57-2.37-.88-4.81,5.07-7.3,4.68-10.14-2.16-16.39-1.94-1.78-3.53-3.1-2.22-5.76,1.95-4-2.8-5.22-3.75-8.3-2.95-9.6-2.67-19.78-6.28-29.13-1-2.48,1.94-7.56,4.38-9.41,7.08-5.37,14.19-10.6,23.23-12.22a6.47,6.47,0,0,1,2.13,4.3,11.54,11.54,0,0,1-1.39,5.6A8.7,8.7,0,0,0,26.67,207c-2.93,13-1.54,25,7.22,35.72,7.34,9,17.14,11.4,27.5,6.34,4.87-2.38,9.55-5.17,13-9.42,14.42-17.89,25.72-37.31,29.48-60.44.76-4.64.21-8.84-2.43-12.7-.93-1.35-2.13-2.84-3.93-2.45-2.11.45-1.6,2.56-1.8,4.09a126,126,0,0,1-24.11,59.09c-4.57,6.21-9.6,12.18-17.23,15-12.41,4.53-18.82.37-18.42-12.71a90.38,90.38,0,0,1,13.53-45.65c8.91-1.48,17.37-4.55,26-7.25,5.24-1.65,7.54-5,6.54-10.45,1.45-4.28,5.27-6.46,8.47-9,5.58-4.48,9.83-10,13.58-15.93,4.24-6.7,3.59-11.54-1.5-17.21-6.15-6.84-11.22-8-18.65-5.18-5.44,2.07-9.09,7.37-15.23,8-.39-1.81-.66-3.66-1.21-5.42-3.63-11.77-3.55-13.29,1.7-23.49a8.14,8.14,0,0,1,4.73-4c32.93-11.31,63.13-29.55,96.67-39,23.93-6.77,48.08-12.87,72-19.65,11-3.12,22.44-4.22,33.24-7.92,3.76-1.28,7.19,1.3,11-.17,21-8.11,43.61-7.9,65.38-12.11,14-2.7,28.31-4.91,42.77-5.4,7.11-.24,14.29-4.07,21.19-3.46,12.57,1.13,24.23-3.44,36.6-3.71,12.94-.29,26-1.35,39-2.06C508-.49,524.45.43,540.83.07c6.85-.15,13.45,1.3,20.19,1.76,7.49.52,12,8.71,12.92,19.76s2.56,22,4.14,33c.44,3,1.86,5.9-1.59,8.08-1.16.74-1,1.79-.38,3C578.85,71,577.22,76.07,575,81c-3.24,7.06,2,16.12,10,17.64,7,1.32,13.09,4,15.19,11.83.82,3.05,3.57,3.65,6.17,3.51,4.31-.24,5,2,4.93,5.64-.16,6.79-.09,13.58,0,20.37,0,2.24-.75,4.77,1.57,6.49,2.5,7.54-.39,14.15-4.07,20.33-2.38,4-2.33,6.3,2.43,7.57,3.11,3.46,3.71,6.51-1.4,8.64-10.06.19-12.36,7.48-13.9,15.34-2.26,11.6-9.8,20-17.1,28.54-1.49,1.74-3.45,3.76-6,2.82-3-1.1-2.74-4.19-2.59-6.67.54-9.38,1.81-18.64,6-27.25.71-1.47,1.45-2.94,2.09-4.45,1-2.5,1.59-5-.75-7.1-2.55-2.27-5.08-1.42-7.72.12-6.58,3.86-6.62,3.8-10.36-2.69-4.2-7.26-7.85-8.15-14.79-3.71A30.11,30.11,0,0,0,534,189.89c-4.37,8.61-12.79,11.24-20.78,14.44-3.12,1.26-4.4-.72-3.77-3.72a32.55,32.55,0,0,1,2.92-7.89c3.29-6.46,3.14-13,1.25-19.81-2.5-8.94-9.07-10.77-15.49-3.94a120.92,120.92,0,0,0-11.87,15.66c-6.68,9.9-13.47,19.73-19.53,30a26.45,26.45,0,0,1-1.46,2.4c-1.36,1.86-2.79,4.73-5.31,3.63-2.78-1.22-1.11-4.17-.45-6.23,3.38-10.47,6.73-21,10.51-31.3,1.32-3.58,2.29-7.18.85-10.93-.8-2.08-2.28-3.67-4.67-3.66-2.81,0-3.25,2.23-3.57,4.38a47.31,47.31,0,0,1-12.46,26.11c-5.37,5.8-9.93,12.42-14.73,18.78a53.29,53.29,0,0,1-17.22,15.27c-5.63,3-9.26,1-9.6-5.27-.36-6.63,1.58-13,3.24-19.31.65-2.49,2.8-3.7,5-4.57,7.92-3.09,13.65-9,19.08-15.14,4.4-5,5.14-10.48,2.4-14.07-2.91-3.82-10.28-5.28-15.55-2.89a22.81,22.81,0,0,0-8.67,7,64.66,64.66,0,0,0-12.5,26.43c-.8,2.29-.9,4.72-1.45,7.05-.88,5.56-3.12,11.13.19,16.63,8.23,12.14,15,12.79,25.47,2.6,5.58-5.42,9.14-12.46,14.66-17.91,1.62-1.6,3.12-4.25,5.75-2.77s1.06,4.18.57,6.36c-4.25,18.94-12.28,36.9-14.54,56.37-.6,5.21-1.08,10.29,1.87,15,.89,1.41,2,2.7,3.93,2.48,2.07-.24,2.37-2,2.69-3.63,1.34-6.66,2.72-13.34,3.61-20.05,2.2-16.46,9-31.1,18.09-44.52C471,210.26,479,197.3,488.33,185.28a33,33,0,0,1,10.55-9.09c2.1-1.12,4.41-2.16,6.6-.51s2,4.15,1.46,6.47c-1.7,7.69-5.67,14.45-9.88,20.85-6.29,9.54-13,18.92-22.66,25.56-2.79,1.92-3,3.95-1.18,6.46,2.08,2.88,4.75,4.1,7.72,1.48a123.06,123.06,0,0,0,14.15-14.63c7-8.59,16.86-13.11,26.43-17.91,4.29-2.15,5.45,1.1,5.08,4.63-.4,4-1,7.9-.65,11.89s1.74,7.4,5.67,9,6.62-.93,9.25-3.38A76,76,0,0,0,553,211.57c1.72-2.66,3.52-7.15,6.9-5.94,3.89,1.39,1.27,5.75.83,8.73-.62,4.19-1.4,8.26-.27,12.51,1.17,4.41,2.44,8.95,7.32,10.34s8.34-2,11.4-5.35a101.6,101.6,0,0,0,9.66-12.93c2.76-4.22,5.36-5.09,9.33-.86,6.47,6.89,10.6,6.63,17-.25,4.47-4.83,7.85-10.5,11.83-15.71,1.68-2.2,3.31-4.9,6.53-4.75,3.44.15,7.64-.4,9.81,2.6,2,2.75-.85,5.69-2.06,8.36-4.21,9.36-9.69,18.33-8.43,29.25a8.32,8.32,0,0,0,5.72,7.47c3.39,1,5.83-1,8.33-2.65,10.31-6.84,17.52-16.49,24.39-26.54,2.37-3.47,3.78-8.12,8.78-9.18.76.48,1.47,1.28,2.29,1.4,11,1.71,14.16,7.56,9.31,17.43-.41.82-1.2,1.51-.61,2.49,7.54,12.56,3.07,26.89,5.86,40.17.58,2.75.5,5.56,2.9,7.53v4.22c-1,1.54-2.46,3-2.92,4.66-1.21,4.46-4,5.46-8.28,5.27-7.34-.32-11.31,4.39-9.37,11.73,2.06,7.79,1.26,12.88-7.6,15.31-4,1.1-6.37,5.58-6.92,9.67-.44,3.29-1.92,4.67-4.58,5.16a253.42,253.42,0,0,1-34.87,4.34c-2.85.11-2.51-3.27-5.58-3-5.57.53-10.57,3.55-11.81,7.54s-7,5.74-5,11.33c.39,1.07-4.52,1.78-7,2.61-6.54,2.14-14.27,2.84-16.9,11.07C579.57,367.15,573.09,365.16,577.45,368.47Z"/><path class="cls-2" d="M631.2,239c-3-9.76,2.65-17.65,5.8-26,1.62-4.29,3.83-8.36,5.62-12.22-9.09-4.47-13.85-.07-17.83,7.24-2.32,4.27-5.57,8.09-8.73,11.84-6.41,7.6-12.78,7.42-19.17-.3-1-1.26-2-2.55-3.16-4-4.56,6.1-8.84,12.18-13.52,17.93-3.12,3.84-6.91,7.5-12.49,6s-7.51-6.38-9-11.55c-2.16-7.58.71-14.71,2-22.22-3.63.49-4.24,3.35-5.4,5.38-3.64,6.37-8.44,11.74-13.43,17-3.28,3.47-7.32,4.71-11.44,3.45-4.43-1.35-5.88-5.66-6.47-10-.78-5.78.78-11.46,1.47-18.27C513.86,210.6,501.75,215.05,494,226c-2.81,4-6.6,7.27-10.08,10.73-2.29,2.27-4.68,5.33-8.39,3.46-3.5-1.77-5.08-5.38-6.24-9-.44-1.39-.17-2.46,1.53-3.29,12.36-6,19.22-17.33,26.15-28.27,3.44-5.42,6.87-11.19,8.25-17.71.43-2,1.25-4.37-.89-5.8-2-1.31-3.41.73-5,1.53-6.6,3.3-10.31,9.4-14.17,15.2-12.88,19.37-28.41,37.23-35.61,59.93-3.6,11.36-4.9,23.27-7,35-.44,2.52-.1,5.53-3.24,6.34-3.32.85-5.16-1.74-6.7-4.06-3.35-5-2.95-10.61-2.26-16.28,2.47-20.07,10.22-38.76,15.17-58.18.34-1.31.8-2.58,1.2-3.86l-1.46-1.08c-3.55,4.28-7.23,8.46-10.6,12.88-3.12,4.11-6.1,8.3-10,11.71-9.92,8.67-19.88,6.55-26-5.53-.55-2.84-1.06-5.68-.05-8.52.36-1.35.29-2.77.53-4.14.41-1.61,1-3.18,1.42-4.78.15-2.42,2.87-5-.49-7.2,1.7-11.75,7.33-21.58,15.18-30.22a23.35,23.35,0,0,1,6.15-4.57c5.72-3.09,14.68-1.87,18.21,2.59,4.49,5.66,2.2,11.27-1.42,16.08-5.25,7-11.55,13-19.9,16.16-3.82,1.42-5.5,3.34-5.76,7.47-.28,4.39-1.73,8.7-2.29,13.09-.31,2.44-.9,5.49,1.87,7,2.34,1.26,4.54-.4,6.45-1.63a60,60,0,0,0,15.06-13.57c6.86-8.82,13.4-17.84,20.88-26.24,4.13-4.64,5.71-11.68,6-18.3.18-3.64.66-6.78,4.93-7.08,4.45-.32,7.07,2.57,7.92,6.48a18,18,0,0,1-1.12,10.22c-4.63,12.42-8.73,25-13.59,39.18,4.29-3.24,5.51-6.54,7.25-9.36,8.23-13.34,16.7-26.53,26.17-39a48.31,48.31,0,0,1,7-7.84c6.24-5.31,13.08-3.2,15.83,4.75,2.5,7.23,3.18,14.47-.24,21.72-1.74,3.69-3.13,7.55-5.17,12.55,10.48-5.41,21-8,25.37-19.51,2.14-5.72,8-8.5,13.13-11.13,4.61-2.35,8.74-.34,11.45,3.87a95.54,95.54,0,0,1,4.56,9c1.59-1.42,3-2.85,4.64-4.1,3.27-2.58,6.64-3.32,10.15-.33,3.27,2.78,3.27,6.05,1.3,9.44-5.69,9.75-7.23,20.6-8.43,31.53-.2,1.79-.86,4.23.88,5.21,2.36,1.33,3.88-1.14,5.07-2.64,7.23-9.07,15.61-17.52,16.9-30a23.61,23.61,0,0,1,1.34-4.72c2.85-8.62,4.91-9.82,13.89-8.15,3.56,2.09,4.78,4.59,1.5,8a9.22,9.22,0,0,0-2.89,5.94c0,3.55-1.46,6.68-2.57,9.94-.73,2.13-2.29,4.89-.27,6.52,2.22,1.79,4.17-.9,6.05-2.06,5.24-3.24,8.23-8.71,12.6-12.83,3.14-2.51,4.26-5.14,3.24-9.6-1.48-6.48,5.22-13.61,11.21-13.16,5,.37,6.11,2.6,3.47,6.73-5.78,9-5.37,9.68,5.58,10.36,5.21.32,10.81.54,9.82,8.33-1.1,9.18-7.12,16.56-9.36,25.33-.61,2.37-2.49,4.45-1.46,8.13C657.58,225.77,663.1,212.94,673,204l10.81-11.82c2.12,6.51-2.42,10.12-3.76,14.52-7.93,9.73-13.88,21-23.08,29.77a71.91,71.91,0,0,1-12.77,9.68c-2.1,1.25-4.12,2.27-6.35.35s-4.51-3.91-4.88-7.15c-.09-.8.26-1.61,0-2.42C632.89,238.06,632.94,239.26,631.2,239Z"/><path class="cls-2" d="M68.61,126.79c3.39-2.44,6.65-5.09,10.19-7.27,10.34-6.37,16.82-5.54,24.81,2.87,6.66,7,6.53,13.46-.23,23.18C97.71,153.72,90,159.68,82.49,166c-1.1,2.05-3,2.78-5.15,2.94-3.11.22-6.28-.17-7.66-3.35-1.24-2.87,1.22-4.6,3.09-6.3.85-.77,1.79-1.45,2.7-2.13,8.84-5.21,14.27-13.15,17.9-22.49.83-2.14,1.87-4.65-.77-6.26-2.17-1.31-4,.18-5.65,1.54a79.45,79.45,0,0,0-14.24,16.21c-7.28,9.69-12.44,20.59-17.86,31.34-1.23,2.44-2,5.26-4.6,6.76-6.61,13.51-11.41,27.6-12.68,42.65-.45,5.42-1.69,11.66,4.8,14.86,4.27,2.1,14.47-1.21,18.66-5.54,19.4-20,30.57-43.86,32.64-71.75.31-4.21,1.88-4.95,5.28-2.89,6,3.61,7.93,9.37,7,15.71-3.91,26-15.54,48.41-34,67-7.62,7.68-17.47,13-28.59,7.93-12.46-5.66-18.64-16.57-20.12-30-.62-5.6.45-11.19,2-16.63,3.91,1.15.18-3.19,2.36-3.28l1.12-5.16c1.28-4.1,3.17-8,4.41-12.09a181.79,181.79,0,0,1,10.12-20.47,81,81,0,0,0,4.46-7.08c1.23-1.14.44-2.85,1.15-4.14C53.94,143.38,61.47,135.22,68.61,126.79Z"/><path class="cls-3" d="M673,204c-8.24,12.36-15.75,25.36-29.22,33.4,3.13-12.75,7.3-24.91,13.75-36.2C662.18,204.68,667.86,202.74,673,204Z"/><path class="cls-4" d="M611.15,174.37c-1.83.22-3.61,3-5.47.33-1-1.49-2.4-3.75-1.07-5.13,6.26-6.54,6.49-15,8.18-23.1,3-.31,6.14-.95,8.65,1.35,2.28,2.1,4.92,5.45,2.24,7.73C617.59,160.74,617.18,169.39,611.15,174.37Z"/><path class="cls-5" d="M624.17,198.51c-2.74,7.62-8.67,12.4-15,16.78-1.56,1.07-3.25,2.2-5.12,1s-1.54-3.38-1.11-5.11a50.73,50.73,0,0,1,5.45-14.23C613.5,198.76,618.65,200.57,624.17,198.51Z"/><path class="cls-6" d="M45.06,164.41,34.83,185.72c-2.66.79-1.88-1.81-2.74-2.78a90.55,90.55,0,0,1,11.07-21.29A2.48,2.48,0,0,1,45.06,164.41Z"/><path class="cls-7" d="M151.48,378.31H153c.18,4.08,4.15,1.9,6.29,3.89-5.16,3.24-11,2.94-16.39,4.38a2.65,2.65,0,0,1-3.25-2c-.36-2.06,1.49-1.78,2.8-2.06C145.73,381.78,149.45,381.86,151.48,378.31Z"/><path class="cls-8" d="M32.09,182.94l2.74,2.78c-2.1,3.77-2.1,8.66-6.11,11.41-1.57-1.19-.63-2.91-.92-4.38Z"/><path class="cls-7" d="M183,374.48c-1.53,4-4.37,4.22-7.52,3.4a1.93,1.93,0,0,1-.7-1.66C176.83,372.94,179.82,374.14,183,374.48Z"/><path class="cls-7" d="M171.91,377.51c-3.18,2.67-6.53,2.1-11.27,4C164.66,377.2,167,374.34,171.91,377.51Z"/><path class="cls-9" d="M577.45,368.47c-1.68-.25-3.69,1.8-5-.57a2.89,2.89,0,0,1-.05-2.58c2.16-2.33,4.26.64,6.46.3Z"/><path class="cls-2" d="M45.06,164.41l-1.9-2.76,3-4a1.8,1.8,0,0,1,2.71-.06C47.61,159.86,46.34,162.14,45.06,164.41Z"/><path class="cls-10" d="M48.89,157.58l-2.71.06,2.68-4.29C49.25,154.76,51.25,156.15,48.89,157.58Z"/><path class="cls-2" d="M202.28,208.54c-2.61,10.36-5.26,20.71-7.81,31.08-.5,2-1.07,4.71,1.14,5.72s3.29-1.51,4.72-3c8.91-9.34,16.73-19.56,24.72-29.65,5.38-6.79,10.87-13.39,12.4-22.39.64-3.72,2.55-7.25,6.87-8a9.85,9.85,0,0,1,9,2.84c2.69,2.86-.71,4.83-1.93,7.19a75.52,75.52,0,0,0-7.22,18.93c-.37,1.78-.77,4,1.14,5.12s3.52-.15,5.16-1.13c10.35-6.21,15.7-16.3,20.47-26.72,3.73-8.12,7.33-16.24,14.71-21.85,6.09-4.62,11.8-4.36,15.42.64,4.62,6.39,4.47,17.85-.3,21.44-1.77,1.33-3.86,2.21-5.88,1.07-2.39-1.34-.34-3.33-.12-5,.63-4.59,4.92-11.46.1-13.06-4.08-1.35-5.64,6.76-7.51,11.09-4.93,11.42-8.68,23.21-10.13,35.63a29.49,29.49,0,0,0-.42,3.48c0,3.71-.9,8.24,2.57,10.39,3.83,2.38,6.89-1.43,9.73-3.56,9.87-7.41,16.08-18.09,23.93-27.3,2.95-3.46,4.77-8.12,10.16-9,2.16-.35,2.1-2.75,2.64-4.5,7.64-24.81,18.43-48.23,31.33-70.71,1.13-2,2.41-4.48,5.29-3.62,3.34,1,4.63,4.15,4.82,7.14s-1.17,5.79-3.06,8.36c-7,9.48-11.47,20.29-16.49,30.83-.68,1.44.38,2.13.48,3.18-1,1.72-2.77,3.24-1.31,5.53,3.68.76,4-2.62,5.34-4.51,10.73-15,21.17-30.27,34.7-43,4.43-4.18,8.73-9,15.85-5.67,5.88,2.76,8.8,9.87,8.33,17.82-.85,14.46-7.57,26.17-16.42,37-.49,1.8-2.44-3.6-2.71.61-.13,2.1-3.35,2.13-4.11,4.18l-1.7,1.31a1.33,1.33,0,0,0-1,.87l-.21,1.17a3.35,3.35,0,0,1,.4,1.49,3.64,3.64,0,0,1-1.89,1.31c-1.6.51-2.05,2-2.76,3.27a38.2,38.2,0,0,0-7,4.13c-8.05,7-17,12.39-28.46,14.65a166.72,166.72,0,0,0,16.55,25c5.42,7,10.91,14.21,17.43,20.16,9.41,8.58,15.38,8.3,23.52,1.59,1-.83,1.67-2.38,3.48-2,.12.14.41.33.39.47-1.3,10-8.9,14.78-16.65,18.9-6.22,3.3-12,1.26-17.35-3.31-17.32-14.81-25.16-35.49-35.29-55.08a108.76,108.76,0,0,0-9.21,27.45c-1,5.43-4,7.72-9.19,7.17-5.7-.61-6.6-4.87-5.78-9.33,1.71-9.37,3.9-18.65,6-28.58-3.51.71-4.44,3.27-5.79,5.12-6.51,8.9-13.36,17.49-21.93,24.55a38.71,38.71,0,0,1-3.83,3.07c-5,3.16-10.18,6.69-16.26,3.9-6.49-3-7.82-9.47-8.66-15.83a49.74,49.74,0,0,1,0-7c.59-2,1.22-3.95-.19-5.86-1.79,2.11-3.56,4.25-5.39,6.35-6.3,7.2-12.56,7.2-18.75-.09-2-2.29-3.67-4.79-5.87-7.7-9.75,14-19.7,27.48-30.52,40.23-3.15,3.72-6.75,6.86-12.1,4.81-5.58-2.12-8.56-6.46-8.78-12.37a42,42,0,0,1,.82-9.74c2.22-11,4.67-21.89,7.2-33.63-12,8.59-26.14,13.21-34.81,25.67-2.64,3.8-6.22,7-9.58,10.24-2.15,2.09-4.66,4.62-8,2.64-3.57-2.14-5.16-5.92-6.23-9.81-.38-1.37.69-1.83,1.87-2.4,12.17-5.86,18.87-17.07,25.78-27.71,3.61-5.57,7.18-11.58,8.52-18.35.38-1.91,1.24-4.42-1-5.76-1.94-1.16-3.44.79-5,1.68a28.26,28.26,0,0,0-9.64,8.95c-14.43,21.43-32,41.08-40,66.24-3.63,11.49-4.92,23.72-7.19,35.63-.44,2.3-.25,4.95-3.2,5.58s-4.8-1.48-6.25-3.63c-3-4.49-3.36-9.48-2.8-14.79C93.37,259.8,99,244.88,103,229.55c4.33-16.53,12.57-31.59,17.25-48,.89-3.1,2.36-6.06,1.86-9.53a5.12,5.12,0,0,1,3.72-6,6.44,6.44,0,0,1,7.41,2.62c3.1,4.25,2.55,8.56.88,13.24-3.77,10.54-7.22,21.2-10.8,31.81-.21,1.31-2.16,3.5,1.45,2.9,9.12-14.17,17.7-28.69,28-42a62.8,62.8,0,0,1,7.82-9c6.35-5.57,13.18-3,16.2,5.11,4.32,11.54,0,21.34-5.1,31.19,7.22.58,19.47-5.71,22.1-12.07,4.34-10.47,8.1-21.18,12.32-32.37-12-.6-23.41,2.78-36.42-1.7,11.27-3.53,21-3.79,30.68-3.66,6.38.08,9.85-1.9,11.82-8.08,3.17-9.89,10.28-17.7,15.26-26.66a11.19,11.19,0,0,1,7.71-5.65c3.74-.78,7.91-1.15,10.5,2,2.81,3.43-1.22,5.91-2.73,8.4-3,5-6.66,9.57-10,14.33a18.78,18.78,0,0,0-5.42,6.27c-.94,2.23-2.39,4.29-2.31,6.87-.23,2.57-1.73,4.58-2.93,6.72-1.63,2.94-4.17,5.4-4.63,8.94.08,2.36-1.17,4.26-2.13,6.26-2.53,2.87-2.3,6.93-4.31,10-.46,2.34-2.09,4.17-2.81,6.41-.66,1.66-.66,3.52-1.57,5.11-1.84,3.48-4.2,6.75-4.58,10.85C201.83,205.49,203,207,202.28,208.54Z"/><path class="cls-11" d="M415.72,329.37c0,.36.08.71.11,1.06-3.44.91-6.82,1.25-10-.94-8.29-8.73-7.69-18.76,1.5-25.22,2.31.28,4.62-.81,6.92.06C422.92,311.72,423.44,320.72,415.72,329.37Z"/><path class="cls-4" d="M252.94,153c-1.4-3.45-.23-5.49,2.1-6.39a7.27,7.27,0,0,1,7.86,1.49c1.94,1.81,4.14,5,2.29,6.68-5.56,5-6.23,12.9-11.59,17.76-1.74,1.58-3.66,4.75-6.3,2.47s-2.38-5.21.12-8.05A24,24,0,0,0,252.94,153Z"/><path class="cls-12" d="M373.42,320.78c.37,3.3-.45,5.93.81,8.36.59,1.15,1,2.28-.73,2.62a7,7,0,0,1-3.46,0c-1.88-.62-.32-1.63-.15-2.61a71.44,71.44,0,0,0,.05-23.48c-.16-1-1.39-2,0-2.77a6,6,0,0,1,3.42-.22c1.47.2,1.63,1.08,1.1,2.49-2.34,6.2,2.63,4.31,5.29,4.48,3.6.24,6.79-.24,3.2-4.93-.79-1-.12-1.88.86-2a10.28,10.28,0,0,1,4.14.2c.87.27.6,1.33.38,2.34a58,58,0,0,0,0,24.11c.21,1,.59,2-.46,2.29a8.3,8.3,0,0,1-4.14.07c-1.78-.49-.9-1.67-.2-2.61,1.74-2.3,1.12-5,.87-7.46-.39-3.87,2.93-9.69-5.71-9.54S375.26,318.47,373.42,320.78Z"/><path class="cls-13" d="M299.65,303.79a6.54,6.54,0,0,1,.77,0c2.91,2.27,6,4.43,6.24,8.63a5.77,5.77,0,0,1-.22,3.16c-.95,4.19-3.74,6.55-7.7,7.77-4.8.58-6.92-1.59-6.65-6.35a34.27,34.27,0,0,0,0-5.55C291.48,305.73,293.92,303.16,299.65,303.79Z"/><path class="cls-14" d="M323.26,305.61c-.17,3.37,1.05,5.11,4.52,3.41,2.26-1.11,3.25.23,3.54,1.82.63,3.48-2,1.58-3.11,1.44-4.23-.55-4.78,1.52-5,5.21-1.06,14.74,2.91,13.46,14.59,9.47-1.78,5.69-5.46,6.54-18.14,4.34.76-9.21,2.12-18.36-.58-27.47C321,303.13,323.14,302,323.26,305.61Z"/><path class="cls-14" d="M115.21,305.61c-.17,3.37,1.05,5.11,4.52,3.41,2.26-1.11,3.25.23,3.53,1.82.63,3.48-2,1.58-3.11,1.44-4.22-.55-4.77,1.52-5,5.21C114.05,332.23,118,331,129.7,327c-1.78,5.69-5.46,6.54-18.14,4.34.75-9.21,2.12-18.36-.58-27.47C112.94,303.13,115.09,302,115.21,305.61Z"/><path class="cls-15" d="M192.5,330.87c-4.38,2.29-9.06.6-13.58,1.05-2.61.25-2.93-.36-2.65-3.45.75-8.18,2-16.53-.79-24.65,1.83-.57,4-2,4.27,1.57-.22,2.95.05,5.55,4,3.69,3.23-1.51,3.31,1,4.29,3-2.63,1.54-7.14-1.75-7.87,1.44-1.06,4.61-1.51,10.17.2,14.33,1.32,3.2,6.68,1.1,10.26,1.09C192.27,328.66,192.89,329.27,192.5,330.87Z"/><path class="cls-16" d="M221.79,156.2c-.57-2.95,1.55-4.82,2.82-7,0-.57-.31-1.34.62-1.38,1.2-.06,1.25.7.91,1.59,5.59,3.52,11.64.33,17.4,1.23,1.59.25,4.41-1.49,4.48,1.34.06,2.62-2.78,3.67-5.11,3.81-6.4.38-12.83.45-19.25.65A1.26,1.26,0,0,1,221.79,156.2Z"/><path class="cls-14" d="M584.62,327.91c-3.43,8.3-10,2.2-15.22,4.28,1.91-9.44,1.57-18,.63-26.51-.12-1.08-1.16-2.31.22-2.84a5.66,5.66,0,0,1,4.07,0c2.13,1-.24,2.12-.29,3.14-.35,6.75-.7,13.53-.38,20.27.19,4.19,4.53,4.2,9.45.1C584.46,326,585.21,326.34,584.62,327.91Z"/><path class="cls-17" d="M299.65,303.79c-1.27,2.59-5.8-.36-6.07,3.18-.36,4.57-.56,9.34.37,13.77.53,2.53,4.05.86,6.22,1.08,1.33-.54,1.8,0,1.6,1.31a2,2,0,0,1-1.13.38c-.72,1.17-1.5,2.24-3.13,1.49-2.19-.31-5.12-.38-3.86,2.71,2.42,5.93-1.68,3.81-4.22,4.3,1.45-9.15,2.16-18,.06-26.63-.67-2.74.31-2.82,2-2.84C294.28,302.51,297.16,302,299.65,303.79Z"/><path class="cls-18" d="M542.35,313.74c.48-1.5,1-3,1.45-4.48,5.23-6.74,4.88.08,6.31,2.59.16.44.29.88.41,1.32,3.31,12,3.31,12-9.5,10.47C539.87,320.13,542.91,317.17,542.35,313.74Z"/><path class="cls-19" d="M494.44,331.8c-2.44-.21-5.87,2.31-4.45-4.34,1.46-6.86.23-14.32-.06-21.5-.05-1.19-1.73-2.56.39-3.22a5.68,5.68,0,0,1,4.05.12c2.1,1.2-.48,2.09-.56,3.06C493.17,314.35,492.57,322.82,494.44,331.8Z"/><path class="cls-20" d="M444,329.34c4.05-4.32,2.77-7.87-1.57-11a51.26,51.26,0,0,1-6.12-4.57c-3.76-3.68-3.29-6.81,2.87-12-5.53,8.57.79,10.47,4.77,13.54,6.76,5.23,7.21,9.39,1.58,15.3C444,331.42,443.85,330.54,444,329.34Z"/><path class="cls-21" d="M471.91,320.39c-9.61,1.23-10.35,2.46-6.36,11.08-3.64.61-6,2-5.15-4.4,1-7.54,1.94-15.62-.93-23.25,1.85-1.1,3.52-1,4.95.71,1.14,2.17,1.07,4.55,1,6.87-.12,3.56,1.29,5.82,4.85,6.59C471.24,318.5,472.09,319.1,471.91,320.39Z"/><path class="cls-22" d="M541.09,322.42c.19.12.36.33.57.37,10.31,1.88,10.63,1.55,8-8.13a29.43,29.43,0,0,1-.57-3.38c-.53-1.45.09-1.94,1.48-1.78,3,7,3.72,14.81,8.07,21.27-4.15,1.17-4.22,1.19-5.24-3-.5-2.05-1.92-2.44-3.63-2.48-2.8-.08-5.59-.1-8.38-.15-1.62.28-2.52-.18-2.06-2,.17-.79.33-1.58.49-2.36C541.08,320.63,541.77,321,541.09,322.42Z"/><path class="cls-12" d="M407.34,305.08c-7.77,7.81-7.79,15.65,0,24.23.13,1.29-.14,2.09-1.65,1.36-9.58-7-9.46-19.82.23-26.9C407.37,303.1,407.57,303.85,407.34,305.08Z"/><path class="cls-23" d="M231.16,330.78c-9.73-6.48-9.59-20.15.27-27.11,1.54-.71,1.75.09,1.56,1.36-8.06,7.59-8.07,16.26,0,24.31C233.11,330.77,232.58,331.32,231.16,330.78Z"/><path class="cls-24" d="M157.18,315.11c-2.15,4.61-4.4,9.18-2,14.44,1,2.08-.59,2.34-2,2.32-1.24,0-3.6.1-2.66-1.8,3.4-6.85-1.39-11.87-3.35-17.53-.73-1.62.16-1.83,1.46-1.67a37.88,37.88,0,0,1,2.12,3.5c2.44,5,3.67,1.5,5.1-.69C157.07,313.4,157.79,313.62,157.18,315.11Z"/><path class="cls-19" d="M262.86,309.51c1.35-2.23-3.9-5.42.66-6.88,4.37-1.4,5.41,2.12,6.32,5.45,1.15,4.25,2.5,8.45,3.76,12.67-.88,1-.2,3.77-3,2.76-2.95-3.63-1.05-9.68-6.11-12.27A1.91,1.91,0,0,1,262.86,309.51Z"/><path class="cls-25" d="M270.85,323.41l2.75-2.66c1.35,3.43,2.69,6.87,4.23,10.79-2.19-.22-5,2.65-5-2.89,0-4.43-8.12-5-13.43-1.09-2.54-.05-1.71-1.49-1.16-2.82a15.8,15.8,0,0,1,2.9-9.68,4.76,4.76,0,0,1,2.15,3.11C263.7,323,268.81,321,270.85,323.41Z"/><path class="cls-12" d="M415.72,329.37c4.7-8.29,6.9-16.44-1.43-24-.37-1.38,0-2.05,1.54-1.62,7.89,4.33,6.07,11.76,5.57,18.52C421.17,325.53,420.54,329.4,415.72,329.37Z"/><path class="cls-26" d="M462.93,401.43c2.24-3.05,5.18-1.57,7.42-2.58,1.75-.78,4.47-2.05,5.07.76.5,2.34-2.52,2.89-4.34,3.58C468.23,404.26,465.8,402.69,462.93,401.43Z"/><path class="cls-27" d="M518.11,330.51c-1.05,2.43-3.36,1.73-4.69,1.12-2.88-1.33.6-2.38.58-3.76-.08-7.47,0-14.94.06-22.42-.15-1.61.22-2.48,2-1.39.57,6.7.08,13.42.25,20.12C516.35,326.44,515.75,328.9,518.11,330.51Z"/><path class="cls-28" d="M515.6,303.82l-1.54,1.63a27,27,0,0,1-4.78-.31c-1.14-.27-3.29,2.65-3.37-.78-.05-2.33,2.08-2,3.62-2,4.81-.1,9.63-.14,14.45-.2,1,1.71-.31,2.44-1.43,3.25l-5.54-.17C516.17,305.12,516.09,304.26,515.6,303.82Z"/><path class="cls-29" d="M471.91,320.39l-1.57-1.3c1.9-4.14,5.57-8.08,1.42-12.88.07-.32.14-.63.22-.95,4.35-1.06,6.18,1.74,6.59,5.14C479.16,315.31,476.7,318.77,471.91,320.39Z"/><path class="cls-30" d="M200.73,204.53c-.62-5.16,2.25-8.7,5.6-12a.87.87,0,0,1,1.29.19c-.31,4.19-1.94,8-3.76,11.66C202.78,203.79,201.78,204.65,200.73,204.53Z"/><path class="cls-24" d="M515.6,303.82l1.41,1.39c.28,8.44-1.52,17,1.1,25.3-3.39-.76-2.45-3.52-2.48-5.68C515.54,317.83,515.6,310.83,515.6,303.82Z"/><path class="cls-31" d="M550.53,309.5l-1.48,1.78c-1-2.65-2.16-4.82-5.25-2,1.38-2.17-3.67-5.37.47-6.58C549.87,301,549,306.63,550.53,309.5Z"/><path class="cls-31" d="M231.16,330.78l1.8-1.44c5.3,2.15,8.36-1.93,12.38-6.1C243.61,332,239.47,333.68,231.16,330.78Z"/><path class="cls-8" d="M210.57,181.57c1.19-3.38-.34-7.91,4.21-9.84A1.86,1.86,0,0,1,216,173l-5.37,12.84A3.44,3.44,0,0,1,210.57,181.57Z"/><path class="cls-19" d="M148.59,310.87c-.49.55-1,1.11-1.46,1.67-2.41-2.7-3.26-6.5-6.13-9.15,3.11-.73,6.72-2.75,6.08,3.68C147,308.27,148.06,309.6,148.59,310.87Z"/><path class="cls-32" d="M233,305l-1.56-1.36c2.64-2.14,5.55-1.78,8.37-.62,1.5.62,2.92,2,1.94,3.75-1.17,2.11-2.73,1.08-3.78-.29C236.61,304.75,234.79,305,233,305Z"/><path class="cls-33" d="M400.16,220.55c-.49,3-1,6.1-1.48,9.15-3.43-5.78-2.14-11.48.3-17.16l.66.7a4.68,4.68,0,0,1,.43,1.84C399.75,216.91,399.06,218.74,400.16,220.55Z"/><path class="cls-34" d="M463.68,305.39c-.93-1.78-2.62-1.55-4.21-1.57,4.4-1.47,8.91-4,12.51,1.44l.08-.1C469.33,307.5,466.53,307.43,463.68,305.39Z"/><path class="cls-22" d="M158.34,309.12c1.78-2-1.66-9,5.94-5.79l-4.6,7.38C158.39,310.89,157.69,310.58,158.34,309.12Z"/><path class="cls-35" d="M179.75,305.39c-1-1.79-2.65-1.56-4.27-1.57,4-2.64,8-1.41,13.29-.57C185.45,306.3,182.3,304.58,179.75,305.39Z"/><path class="cls-36" d="M226,142.16c1.61-2.72,2.6-6.18,6.87-5.68a11.4,11.4,0,0,1-3.91,7.16C227.31,144.5,226.69,143.3,226,142.16Z"/><path class="cls-37" d="M435.27,330.61a23,23,0,0,1-2.92-2.83,3.53,3.53,0,0,1,.06-4.52c.63-.85,1.56-1.34,2.37-.81,1.39.91.64,2.49.81,3.8a12.71,12.71,0,0,0,1.22,3.11C436.93,330.56,436.77,331.42,435.27,330.61Z"/><path class="cls-38" d="M125,385.56c-4,1.81-6.83,3.35-10.76,1.91C117.22,384.82,120,383.33,125,385.56Z"/><path class="cls-39" d="M115.21,305.61c-.87-1.86-2.55-1.82-4.23-1.78,4.21-2.57,8.47-2,12.76-.23-.18.93-1,1.08-1.7,1.48Z"/><path class="cls-14" d="M539.29,323.11l2.06,2c-3.2.95,2.53,9.53-5.91,6.15Z"/><path class="cls-40" d="M631.2,239l2.64-6c-1,6.44,2,9.7,4,13.4C633.69,245.68,632.26,242.51,631.2,239Z"/><path class="cls-39" d="M258.27,324.74l1.16,2.82c3.52,7.79-2.31,3.44-5.36,4.38Z"/><path class="cls-39" d="M323.26,305.61c-.87-1.86-2.55-1.82-4.23-1.78,4.21-2.57,8.48-2,12.76-.23-.18.93-1.05,1.08-1.7,1.48Z"/><path class="cls-36" d="M400.09,205.07c.57,1.45,4-3,3.14,1.56-.37,2,.42,4.15-1.2,5.86-.66,1.69-1.1-5.39-1.9-.05,0,.29-.76.23-1.22,0l.07.14C398.62,209.94,398.49,207.38,400.09,205.07Z"/><path class="cls-41" d="M221.79,156.2l1.87.21c-2.75,2.22-2.59,5.94-4.47,8.61-1-.27-2.08.48-3-.38C216.32,160.67,219.46,158.7,221.79,156.2Z"/><path class="cls-42" d="M226,142.16l3,1.48a10.82,10.82,0,0,1-2.84,5.74c-.41-.77-.84-1.41-1.53-.21C222,146.21,225.68,144.52,226,142.16Z"/><path class="cls-43" d="M260.37,402.76a3.74,3.74,0,0,1-2.76-2.71c-.41-1.58.82-1.91,2-1.95,1.51-.05,2.73.46,2.71,2.25A2.29,2.29,0,0,1,260.37,402.76Z"/><path class="cls-44" d="M216.21,164.64c1-.3,2.2-1.4,3,.38-.28,3-1.83,5.47-3.21,8l-1.2-1.31C215.26,169.36,215.73,167,216.21,164.64Z"/><path class="cls-36" d="M387.91,175.07c1.93-2.08,1.23-7.91,6.82-4.79C393.46,173.31,391.33,175.1,387.91,175.07Z"/><path class="cls-45" d="M346.93,168.66c-.55.71-1,1.68-1.69,2.07-.91.49-1.17-.59-1-1.14.67-2.55.47-5.7,4-6.46C348.62,165.16,347.74,166.9,346.93,168.66Z"/><path class="cls-46" d="M446.28,306.32a1.65,1.65,0,0,1-1.86,1.56c-2.16-.33-2.85-2.09-2.91-4,0-1.12,1-1.43,1.94-1A4,4,0,0,1,446.28,306.32Z"/><path class="cls-47" d="M301.77,323.13l-1.6-1.31c2.81-1.63,4.3-4.34,5.76-7.08,1.32.6.62,2.07,1.29,2.95A7.72,7.72,0,0,1,301.77,323.13Z"/><path class="cls-48" d="M415.83,303.79l-1.54,1.62-7-.33-1.46-1.31C409.2,303.59,412.52,301.15,415.83,303.79Z"/><path class="cls-49" d="M306,312.45c-.61-3.7-4.9-5-5.6-8.68,3.34.68,5.83,2.37,6.9,5.76C306.55,310.35,307.2,311.81,306,312.45Z"/><path class="cls-50" d="M297.51,325l3.13-1.49,2.61,5.62c-.39.58-.55,1.38-1.4,1.56C299.57,329.43,299,326.88,297.51,325Z"/><path class="cls-51" d="M301.85,330.69l1.4-1.56c2,1.95,3.28-3,5.19-.57.33.42,0,1.9-.56,2.37C305.89,332.71,303.79,332.7,301.85,330.69Z"/><path class="cls-27" d="M262.14,317.85l-1-2.79a9.63,9.63,0,0,1,1.69-5.55l1.15,1.41C266,313.92,265.05,316.16,262.14,317.85Z"/><path class="cls-19" d="M405.65,330.67l1.65-1.36,8.53,1.12C412.5,333.2,409.09,332.79,405.65,330.67Z"/><path class="cls-52" d="M435.27,330.61l1.54-1.25a7.87,7.87,0,0,0,7.18,0l1.53,1.28A8.21,8.21,0,0,1,435.27,330.61Z"/><path class="cls-26" d="M136.22,366.29c2.07,2,3.19,3.6,2.82,5.77,0,.19-.85.45-1.17.33C135.13,371.39,136.23,369.17,136.22,366.29Z"/><path class="cls-53" d="M373.73,188.62c1.5-2.79,3.31-5.06,7-4.13C379.25,187.32,377.12,189,373.73,188.62Z"/><path class="cls-54" d="M541.09,322.42c-.44-.56-.87-1.12-1.31-1.67.86-2.34,1.71-4.68,2.57-7C544.4,317,541.93,319.58,541.09,322.42Z"/><path class="cls-55" d="M124.74,216.61c-.6,1.69-1,3.56-3.63,4,.14-2.62.55-4.93,2.18-6.92C123.56,214.78,123.48,216,124.74,216.61Z"/><path class="cls-50" d="M192.5,330.87,190.68,329c1-1.48,1.94-3.09,4.07-3.38C195.77,328.17,194,329.44,192.5,330.87Z"/><path class="cls-56" d="M27.6,202.29V208c-1.88.34-1-2.27-2.36-2.43A2.55,2.55,0,0,1,27.6,202.29Z"/><path class="cls-57" d="M207.62,192.7l-1.29-.19a8.14,8.14,0,0,1,1.41-5.22c1.36-.33,2.22-.15,1.58,1.56C209.23,190.34,209,191.77,207.62,192.7Z"/><path class="cls-41" d="M209.32,188.85l-1.58-1.56c.15-2.3,1.58-4,2.83-5.72,0,1.43,0,2.87,0,4.31A3.28,3.28,0,0,1,209.32,188.85Z"/><path class="cls-58" d="M158.34,309.12l1.34,1.59-2.5,4.4c-.46-.47-.91-.95-1.37-1.43Q157.08,311.4,158.34,309.12Z"/><path class="cls-59" d="M306,312.45l1.3-2.92a12.94,12.94,0,0,1-.1,8.16l-1.29-2.95Z"/><path class="cls-60" d="M262.57,213.68c.15-.77.64-2.32,1.18-.73a6.78,6.78,0,0,1-1,6.59C262.7,217.59,262.64,215.63,262.57,213.68Z"/><path class="cls-4" d="M200.73,204.53c1-.45,2-2.05,3.13-.17-.31,1.48-.24,3.09-1.58,4.18C201.76,207.21,201.24,205.87,200.73,204.53Z"/><path class="cls-61" d="M122,305.08l1.7-1.48c1.15,1,2.82,1.62,2.17,3.72C124,307.61,123.39,305.68,122,305.08Z"/><path class="cls-61" d="M330.09,305.08l1.7-1.48c1.15,1,2.82,1.62,2.18,3.72C332,307.61,331.44,305.68,330.09,305.08Z"/><path class="cls-62" d="M584.62,327.91l-1.52-1.6c.77-1.12,1.1-3.65,2.94-2.23C587.19,325,585.66,326.79,584.62,327.91Z"/><path class="cls-24" d="M522.55,305.38c.48-1.09,1-2.17,1.43-3.25,2.52-1.17,1.78.8,1.46,1.73C525,305.09,524.69,307.16,522.55,305.38Z"/><path class="cls-4" d="M383.49,181.22l1.37-1.25c.39-.42.73-.38,1,.13A1.74,1.74,0,0,1,383.49,181.22Z"/><path class="cls-11" d="M385.19,177.25c-.53-1.3.23-1.1,1-.87A1.82,1.82,0,0,1,385.19,177.25Z"/><path class="cls-57" d="M385.86,180.1a4.81,4.81,0,0,1-1-.13l.12-1.55C386,178.6,386.72,178.93,385.86,180.1Z"/><path class="cls-63" d="M537.6,220.74c-.35-14.25,5.22-26.42,12.18-38.09a4.76,4.76,0,0,1,4.74-2.5c2.51.39,1.86,2.76,2.56,4.36,3.15,7.13,1,12.94-3.74,18.5C548.27,209,544.51,216,537.6,220.74Z"/><path class="cls-64" d="M418,197.88c1.83-7.9,4.78-15.06,9.7-21.27,1.11-1.4,2.29-3.47,4.39-2.34,1.72.93,1.88,3,1.64,5C432.54,188.83,425.65,193.66,418,197.88Z"/><path class="cls-65" d="M398.91,212.4c1.6-.39.65-3.06,2.56-2.91.27,0,.38,1.95.56,3-.52,1.46-1,2.93-1.55,4.39-1.22-.62-.51-2.17-1.43-2.94C399,213.43,399,212.91,398.91,212.4Z"/><path class="cls-66" d="M399.05,213.94c.48,1,1,2,1.43,2.94-.1,1.22-.21,2.45-.32,3.67C398.15,218.62,399.22,216.18,399.05,213.94Z"/><path class="cls-1" d="M344.45,194.05c9.81-23.81,25.47-43.18,42.43-61.63,1.88-2,4.14-5.54,7.43-3.5,2.63,1.62,1.64,5.11.92,7.82-6.63,24.76-21.87,42.87-43.46,56A9.85,9.85,0,0,1,344.45,194.05Z"/><path class="cls-67" d="M99.51,251.68c.16-1,0-2.68.54-3,2.14-1.18,1.19.57,1,1.39a11.91,11.91,0,0,1-.63,1.79Z"/><path class="cls-68" d="M463.68,305.39l8.38-.23c5.58,6.5,5.28,8.89-1.72,13.93-5.44.92-7.61-1.3-6.8-6.78A51.45,51.45,0,0,0,463.68,305.39Z"/><path class="cls-69" d="M262.14,317.85c.62-2.31,1.25-4.62,1.87-6.94l2.38-3.87c2,5.61,4.73,10.55,4.46,16.37a34.94,34.94,0,0,0-4.8,0C261,324.09,260.7,321.63,262.14,317.85Z"/></g></g></svg>